<?xml version="1.0" encoding="UTF-8"?>
<svg version="1.1" xmlns="http://www.w3.org/2000/svg" width="256" height="256">
<path d="M0 0 C84.48 0 168.96 0 256 0 C256 84.48 256 168.96 256 256 C171.52 256 87.04 256 0 256 C0 171.52 0 87.04 0 0 Z " fill="#FEFEFE" transform="translate(0,0)"/>
<path d="M0 0 C3.96 0 7.92 0 12 0 C12.54785156 1.49660156 13.09570312 2.99320313 13.66015625 4.53515625 C21.22178044 25.10765251 29.09751498 45.55647713 37 66 C40.96 66.33 44.92 66.66 49 67 C49 70.3 49 73.6 49 77 C46.36 77 43.72 77 41 77 C41.99 79.97 42.98 82.94 44 86 C40.37 86 36.74 86 33 86 C32.01 83.03 31.02 80.06 30 77 C23.73 77 17.46 77 11 77 C11 91.85 11 106.7 11 122 C23.54 122 36.08 122 49 122 C49 125.3 49 128.6 49 132 C20.62 132 -7.76 132 -37 132 C-37 128.7 -37 125.4 -37 122 C-24.13 122 -11.26 122 2 122 C2 107.15 2 92.3 2 77 C-7.9 77.495 -7.9 77.495 -18 78 C-18.99 80.64 -19.98 83.28 -21 86 C-24.63 86 -28.26 86 -32 86 C-31.24872886 82.24364431 -30.75994274 80.16789693 -29 77 C-31.64 77 -34.28 77 -37 77 C-37 73.7 -37 70.4 -37 67 C-33.04 67 -29.08 67 -25 67 C-24.58935303 65.57494141 -24.17870605 64.14988281 -23.75561523 62.68164062 C-22.06300856 57.04625825 -20.03271578 51.57917447 -17.91015625 46.09375 C-17.52435898 45.0884021 -17.13856171 44.0830542 -16.74107361 43.04724121 C-15.51828671 39.86350631 -14.29040138 36.68176532 -13.0625 33.5 C-12.24251934 31.36600804 -11.42285519 29.23189444 -10.60351562 27.09765625 C-7.12283479 18.04265793 -3.61859496 9.00094328 0 0 Z " fill="#2D2C2C" transform="translate(122,54)"/>
<path d="M0 0 C2.78318183 2.78318183 3.46822102 6.07916514 4.625 9.75 C8.13609488 20.60635024 12.06809157 31.2889391 16 42 C6.1 42 -3.8 42 -14 42 C-13.11835694 37.59178469 -11.86952696 33.62026281 -10.3125 29.43359375 C-10.04993408 28.7176857 -9.78736816 28.00177765 -9.5168457 27.26417542 C-8.68134629 24.98733088 -7.84103905 22.7123035 -7 20.4375 C-6.15952501 18.15892704 -5.3201362 15.8799714 -4.4831543 13.60011292 C-3.96334878 12.18471351 -3.4414653 10.77007502 -2.91723633 9.35630798 C-1.78079592 6.2663812 -0.69666114 3.22154552 0 0 Z " fill="#F7F7F7" transform="translate(127,65)"/>
<path d="M0 0 C12.21 0 24.42 0 37 0 C37.66 1.65 38.32 3.3 39 5 C25.8 5 12.6 5 -1 5 C-0.67 3.35 -0.34 1.7 0 0 Z " fill="#FDFDFD" transform="translate(109,116)"/>
</svg>
