<?xml version="1.0" encoding="UTF-8"?>
<svg xmlns="http://www.w3.org/2000/svg" xmlns:xlink="http://www.w3.org/1999/xlink" width="32px" height="32px" viewBox="0 0 32 32" version="1.1">
<g id="surface1">
<path style=" stroke:none;fill-rule:nonzero;fill:rgb(99.607843%,99.607843%,99.607843%);fill-opacity:1;" d="M 0 0 C 10.558594 0 21.121094 0 32 0 C 32 10.558594 32 21.121094 32 32 C 21.441406 32 10.878906 32 0 32 C 0 21.441406 0 10.878906 0 0 Z M 0 0 "/>
<path style=" stroke:none;fill-rule:nonzero;fill:rgb(17.647059%,17.254902%,17.254902%);fill-opacity:1;" d="M 15.25 6.75 C 15.746094 6.75 16.238281 6.75 16.75 6.75 C 16.820312 6.9375 16.886719 7.125 16.957031 7.316406 C 17.902344 9.886719 18.886719 12.445312 19.875 15 C 20.371094 15.042969 20.863281 15.082031 21.375 15.125 C 21.375 15.539062 21.375 15.949219 21.375 16.375 C 21.046875 16.375 20.714844 16.375 20.375 16.375 C 20.5 16.746094 20.621094 17.117188 20.75 17.5 C 20.296875 17.5 19.84375 17.5 19.375 17.5 C 19.25 17.128906 19.128906 16.757812 19 16.375 C 18.214844 16.375 17.433594 16.375 16.625 16.375 C 16.625 18.230469 16.625 20.085938 16.625 22 C 18.191406 22 19.761719 22 21.375 22 C 21.375 22.414062 21.375 22.824219 21.375 23.25 C 17.828125 23.25 14.28125 23.25 10.625 23.25 C 10.625 22.835938 10.625 22.425781 10.625 22 C 12.234375 22 13.84375 22 15.5 22 C 15.5 20.144531 15.5 18.289062 15.5 16.375 C 14.261719 16.4375 14.261719 16.4375 13 16.5 C 12.875 16.828125 12.753906 17.160156 12.625 17.5 C 12.171875 17.5 11.71875 17.5 11.25 17.5 C 11.34375 17.03125 11.40625 16.769531 11.625 16.375 C 11.296875 16.375 10.964844 16.375 10.625 16.375 C 10.625 15.960938 10.625 15.550781 10.625 15.125 C 11.121094 15.125 11.613281 15.125 12.125 15.125 C 12.175781 14.945312 12.226562 14.769531 12.28125 14.585938 C 12.492188 13.878906 12.746094 13.199219 13.011719 12.511719 C 13.058594 12.386719 13.109375 12.261719 13.15625 12.132812 C 13.308594 11.734375 13.464844 11.335938 13.617188 10.9375 C 13.71875 10.671875 13.820312 10.402344 13.925781 10.136719 C 14.359375 9.003906 14.796875 7.875 15.25 6.75 Z M 15.25 6.75 "/>
<path style=" stroke:none;fill-rule:nonzero;fill:rgb(96.862745%,96.862745%,96.862745%);fill-opacity:1;" d="M 15.875 8.125 C 16.222656 8.472656 16.308594 8.886719 16.453125 9.34375 C 16.890625 10.699219 17.382812 12.035156 17.875 13.375 C 16.636719 13.375 15.398438 13.375 14.125 13.375 C 14.234375 12.824219 14.390625 12.328125 14.585938 11.804688 C 14.617188 11.714844 14.652344 11.625 14.683594 11.53125 C 14.789062 11.25 14.894531 10.964844 15 10.679688 C 15.105469 10.394531 15.210938 10.109375 15.316406 9.824219 C 15.378906 9.648438 15.445312 9.472656 15.511719 9.292969 C 15.652344 8.910156 15.789062 8.527344 15.875 8.125 Z M 15.875 8.125 "/>
<path style=" stroke:none;fill-rule:nonzero;fill:rgb(99.215686%,99.215686%,99.215686%);fill-opacity:1;" d="M 13.625 14.5 C 15.152344 14.5 16.675781 14.5 18.25 14.5 C 18.332031 14.707031 18.414062 14.914062 18.5 15.125 C 16.851562 15.125 15.199219 15.125 13.5 15.125 C 13.542969 14.917969 13.582031 14.710938 13.625 14.5 Z M 13.625 14.5 "/>
</g>
</svg>
